<svg xmlns="http://www.w3.org/2000/svg" viewBox="0 0 29 28">
<symbol id="diskete">
  <path d="M.5 0h1.615v1.615H.5zm0 1.615h1.615V3.23H.5zm0 1.615h1.615v1.615H.5zm0 1.616h1.615v1.615H.5zm0 1.616h1.615v1.615H.5zm0 1.615h1.615v1.615H.5zm0 1.615h1.615v1.615H.5zm0 1.616h1.615v1.615H.5zm0 1.615h1.615v1.615H.5zm0 1.615h1.615v1.615H.5zm0 1.616h1.615v1.615H.5zm0 1.616h1.615v1.615H.5zm0 1.615h1.615V21H.5zM18.27 0v1.615h-1.616V0zm-1.616 0v1.615h-1.615V0zm-1.615 0v1.615h-1.615V0zm-1.616 0v1.615h-1.615V0zm-1.615 0v1.615h-1.615V0zm-1.616 0v1.615H8.577V0zM8.577 0v1.615H6.962V0zM6.962 0v1.615H5.347V0zM5.346 0v1.615H3.731V0zM3.73 0v1.615H2.117V0zm16.155 1.616V3.23H18.27V1.616zM5.347 3.23v1.615H3.732V3.23zm-.001-1.615V3.23H3.731V1.615zm0 3.231V6.46H3.73V4.846zM16.654 3.23v1.616H15.04V3.23zm0-1.615V3.23h-1.615V1.615zm-.001 3.231V6.46H15.04V4.846zM13.424 3.23v1.615h-1.615V3.23zm-.001-1.615V3.23h-1.615V1.615zm0 3.231V6.46h-1.615V4.846zm3.231 1.616v1.615h-1.615V6.462zm-1.616 0v1.615h-1.615V6.462zm-1.615 0v1.615h-1.615V6.462zm-1.615 0v1.615h-1.615V6.462zm-1.616 0v1.615H8.577V6.462zm-1.615 0v1.615H6.962V6.462zm-1.616 0v1.615H5.346V6.462zm-1.615 0v1.615H3.731V6.462zm12.923 4.845v1.615h-1.615v-1.615zm-1.616.001v1.615h-1.615v-1.615z"/>
  <path d="M15.038 11.308v1.615h-1.615v-1.615zm-1.615-.001v1.615h-1.615v-1.615zm-1.616.001v1.615h-1.615v-1.615zm-1.615-.001v1.615H8.577v-1.615zm-1.616.001v1.615H6.961v-1.615zm-1.615 0v1.615H5.346v-1.615zm-1.615-.001v1.615H3.73v-1.615zm12.924 1.616v1.615h-1.616v-1.615zm-12.924 0v1.615H3.731v-1.615z"/>
  <path d="M18.27 14.538v1.615h-1.616v-1.615zm-12.924 0v1.615H3.731v-1.615zm12.924 1.616v1.615h-1.615v-1.615zm-12.924 0v1.615H3.731v-1.615zm0 1.616v1.614H3.73V17.77zm12.923 0v1.614h-1.615V17.77zm1.615 1.615V21H18.27v-1.615zm-1.614-.001V21h-1.616v-1.615zm-1.616.001V21h-1.615v-1.615zm-1.616 0V21h-1.615v-1.615zm-1.615 0V21h-1.615v-1.615zm-1.616 0V21h-1.615v-1.615zm-1.615-.001V21H8.577v-1.615zm-1.615.001V21H6.962v-1.615zm-1.616 0V21H5.346v-1.615zm-1.615 0V21H3.731v-1.615zm-1.616 0V21H2.117v-1.615zM21.5 21h-1.615v-1.615H21.5zm0-1.615h-1.615V17.77H21.5zm0-1.616h-1.615v-1.615H21.5z"/>
  <path d="M21.5 16.155h-1.615V14.54H21.5zm0-1.617h-1.615v-1.615H21.5zm0-1.615h-1.615v-1.615H21.5zm0-1.616h-1.615V9.692H21.5z"/>
  <path d="M21.5 9.693h-1.615V8.078H21.5zm0-1.616h-1.615V6.462H21.5zm0-1.615h-1.615V4.847H21.5zm0-1.617h-1.615V3.23H21.5z"/>
</symbol>
</svg>