<svg width="27" height="24" viewBox="0 0 27 24" fill="none" xmlns="http://www.w3.org/2000/svg">
<path d="M6 -7.62939e-06H3V2.99999H6V-7.62939e-06Z" fill="black"/>
<path d="M9 -7.62939e-06H6V2.99999H9V-7.62939e-06Z" fill="black"/>
<path d="M3 2.99999H0V5.99999H3V2.99999Z" fill="black"/>
<path d="M3 5.99999H0V8.99999H3V5.99999Z" fill="black"/>
<path d="M3 8.99999H0V12H3V8.99999Z" fill="black"/>
<path d="M12 -7.62939e-06H9V2.99999H12V-7.62939e-06Z" fill="black"/>
<path d="M6 12H3V15H6V12Z" fill="black"/>
<path d="M9 15H6V18H9V15Z" fill="black"/>
<path d="M12 18H9V21H12V18Z" fill="black"/>
<path d="M21 -7.62939e-06H24V2.99999H21V-7.62939e-06Z" fill="black"/>
<path d="M18 -7.62939e-06H21V2.99999H18V-7.62939e-06Z" fill="black"/>
<path d="M24 2.99999H27V5.99999H24V2.99999Z" fill="black"/>
<path d="M24 5.99999H27V8.99999H24V5.99999Z" fill="black"/>
<path d="M24 8.99999H27V12H24V8.99999Z" fill="black"/>
<path d="M15 -7.62939e-06H18V2.99999H15V-7.62939e-06Z" fill="black"/>
<path d="M21 12H24V15H21V12Z" fill="black"/>
<path d="M18 15H21V18H18V15Z" fill="black"/>
<path d="M15 18H18V21H15V18Z" fill="black"/>
<path d="M15 2.99999H12V5.99999H15V2.99999Z" fill="black"/>
<path d="M15 21H12V24H15V21Z" fill="black"/>
</svg>
